<?xml version="1.0" encoding="UTF-8"?>
<svg id="Layer_1" data-name="Layer 1" xmlns="http://www.w3.org/2000/svg" viewBox="0 0 283.46 106.5">
  <defs>
    <style>
      .cls-1 {
        fill: #006e58;
      }

      .cls-1, .cls-2, .cls-3, .cls-4, .cls-5 {
        fill-rule: evenodd;
      }

      .cls-2 {
        fill: #438a77;
      }

      .cls-3, .cls-6 {
        fill: #444d3e;
      }

      .cls-4, .cls-7 {
        fill: #00583d;
      }

      .cls-8 {
        fill: #383a36;
      }

      .cls-5 {
        fill: #7baa9c;
      }
    </style>
  </defs>
  <path class="cls-4" d="M245.02,17.82c5.81-6.65,8.1-14.19,8.1-14.19-32.1-10.36-52.56,11.27-55.15,14.19h47.05Z"/>
  <path class="cls-1" d="M197.97,17.82c2.48-2.31,22.39-19.65,53.3-9.64-1.3,2.72-3.33,6.29-6.25,9.64h-47.05Z"/>
  <path class="cls-2" d="M198.05,17.82c2.87-2.01,23.22-15.22,50.34-4.49-.95,1.46-2.06,2.98-3.34,4.45l-47.01.04Z"/>
  <path class="cls-5" d="M245.02,17.82c-19.15-9.47-42.49-1.55-46.66,0h46.66Z"/>
  <path class="cls-3" d="M199.1,18.98c22.73,14.55,36.8,8.44,44.86,0h-44.86Z"/>
  <path class="cls-6" d="M28.67,44.29c0-6.27,0-7.4-.08-8.68-.08-1.37-.4-2.01-1.73-2.29-.32-.08-1.01-.12-1.37-.12-.16,0-.32-.08-.32-.24,0-.24.2-.32.64-.32.92,0,2.01,0,2.89.04l1.65.08c.8.04,8.96,0,9.88-.04.77-.04,1.41-.04,1.77-.16.24-.08.4-.24.56-.24s.24.16.24.36c0,.28-.2.76-.32,1.89-.04.4-.12,2.17-.2,2.65-.04.2-.12.44-.32.44s-.28-.2-.28-.48c0-.32-.12-1-.36-1.53-.24-.52-1.17-1.25-2.73-1.29l-6.19-.12c-.24,0-.36.12-.36.44v11.09c0,.24.04.36.28.36l5.15-.04c.68,0,1.25,0,1.81-.04.96-.08,1.49-.2,1.85-.72.16-.2.28-.4.44-.4s.2.12.2.32c0,.24-.2.92-.32,2.25-.08.8-.16,2.41-.16,2.69,0,.36,0,.77-.28.77-.2,0-.28-.16-.28-.36-.04-.4-.08-.97-.24-1.45-.2-.56-.85-1.29-2.09-1.45-1-.12-5.39-.12-6.07-.12-.2,0-.28.08-.28.36v3.41c0,3.86,0,7.03.2,8.72.12,1.16.36,2.05,1.57,2.21.56.08,1.45.16,1.81.16.24,0,.32.12.32.24,0,.2-.2.32-.64.32-2.21,0-4.74-.12-4.94-.12s-2.73.12-3.94.12c-.44,0-.64-.08-.64-.32,0-.12.08-.24.32-.24.36,0,.84-.08,1.21-.16.8-.16,1.01-1.04,1.17-2.21.2-1.69.2-4.86.2-8.72v-7.07Z"/>
  <path class="cls-6" d="M53.14,44.29c0-6.27,0-7.4-.08-8.68-.08-1.37-.4-2.01-1.73-2.29-.32-.08-1-.12-1.37-.12-.16,0-.32-.08-.32-.24,0-.24.2-.32.64-.32,1.81,0,4.34.12,4.54.12.44,0,3.5-.12,4.74-.12,2.53,0,5.22.24,7.35,1.77,1,.72,2.77,2.69,2.77,5.47,0,2.97-1.25,5.95-4.86,9.28,3.3,4.22,14.14,18.01,16.47,20.5,2.17,2.29,3.9,2.73,4.9,2.89.76.12,1.33.12,1.57.12.2,0,.36.12.36.24,0,.24-.24.32-.96.32h-2.85c-2.25,0-3.26-.2-4.3-.77-1.73-.92-11.25-13.11-13.54-16.12-1.69-2.21-3.58-4.9-4.38-5.95-.16-.16-.28-.24-.52-.24l-4.95-.08c-.2,0-.28.12-.28.32v.97c0,3.86,0,7.03.2,8.72.12,1.16.36,2.05,1.57,2.21.56.08,1.45.16,1.81.16.24,0,.32.12.32.24,0,.2-.2.32-.64.32-2.21,0-4.74-.12-4.94-.12-.04,0-2.57.12-3.78.12-.44,0-.64-.08-.64-.32,0-.12.08-.24.32-.24.36,0,.84-.08,1.2-.16.8-.16,1.01-1.04,1.17-2.21.2-1.69.2-4.86.2-8.72v-7.07ZM56.36,47.78c0,.2.08.36.28.48.61.36,2.45.65,4.22.65.97,0,2.09-.12,3.01-.76,1.41-.97,2.45-3.13,2.45-6.19,0-5.02-2.65-8.04-6.95-8.04-1.2,0-2.29.12-2.69.24-.2.08-.32.24-.32.48v13.14Z"/>
  <path class="cls-6" d="M232.39,44.29c0-6.27,0-7.4-.08-8.68-.08-1.37-.4-2.01-1.73-2.29-.32-.08-1-.12-1.37-.12-.16,0-.32-.08-.32-.24,0-.24.2-.32.64-.32,1.81,0,4.34.12,4.54.12.44,0,3.5-.12,4.74-.12,2.53,0,5.23.24,7.35,1.77,1,.72,2.77,2.69,2.77,5.47,0,2.97-1.25,5.95-4.86,9.28,3.29,4.22,14.15,18.01,16.48,20.5,2.17,2.29,3.9,2.73,4.9,2.89.76.12,1.33.12,1.57.12.2,0,.36.12.36.24,0,.24-.24.32-.96.32h-2.85c-2.25,0-3.26-.2-4.3-.77-1.73-.92-11.25-13.11-13.54-16.12-1.69-2.21-3.58-4.9-4.38-5.95-.16-.16-.28-.24-.52-.24l-4.94-.08c-.2,0-.28.12-.28.32v.97c0,3.86,0,7.03.2,8.72.12,1.16.37,2.05,1.57,2.21.56.08,1.45.16,1.81.16.24,0,.32.12.32.24,0,.2-.2.32-.64.32-2.21,0-4.74-.12-4.94-.12-.04,0-2.57.12-3.78.12-.44,0-.64-.08-.64-.32,0-.12.08-.24.32-.24.36,0,.84-.08,1.21-.16.8-.16,1-1.04,1.17-2.21.2-1.69.2-4.86.2-8.72v-7.07ZM235.61,47.78c0,.2.08.36.28.48.6.36,2.45.65,4.22.65.96,0,2.09-.12,3.01-.76,1.41-.97,2.46-3.13,2.46-6.19,0-5.02-2.65-8.04-6.96-8.04-1.21,0-2.29.12-2.69.24-.2.08-.32.24-.32.48v13.14Z"/>
  <path class="cls-6" d="M93.75,32.07c9.04,0,15.79,5.71,15.79,15.07s-6.35,16.44-16.03,16.44c-11.01,0-15.59-8.56-15.59-15.8,0-6.51,4.74-15.71,15.83-15.71ZM94.6,62.05c3.62,0,11.09-2.09,11.09-13.78,0-9.64-5.87-14.83-12.22-14.83-6.71,0-11.73,4.42-11.73,13.22,0,9.36,5.63,15.39,12.86,15.39Z"/>
  <path class="cls-6" d="M119.84,57.55c.08,3.3.48,4.34,1.57,4.66.76.2,1.65.24,2.01.24.2,0,.32.08.32.24,0,.24-.24.32-.72.32-2.29,0-3.9-.12-4.26-.12s-2.05.12-3.86.12c-.4,0-.64-.04-.64-.32,0-.16.12-.24.32-.24.32,0,1.05-.04,1.65-.24,1-.28,1.21-1.45,1.21-5.1l.04-23.02c0-1.57.12-2.01.44-2.01s1,.89,1.41,1.29c.6.68,6.59,7.15,12.78,13.79,3.98,4.26,8.36,9.16,9.64,10.49l-.44-20.41c-.04-2.61-.32-3.5-1.57-3.82-.72-.16-1.65-.2-1.97-.2-.28,0-.32-.12-.32-.28,0-.24.32-.28.8-.28,1.81,0,3.74.12,4.18.12s1.77-.12,3.42-.12c.44,0,.72.04.72.28,0,.16-.16.28-.44.28-.2,0-.48,0-.96.12-1.33.28-1.49,1.17-1.49,3.58l-.08,23.55c0,2.65-.08,2.85-.36,2.85-.32,0-.81-.45-2.93-2.57-.44-.4-6.23-6.31-10.49-10.89-4.66-5.02-9.2-10.08-10.49-11.53l.52,19.25Z"/>
  <path class="cls-6" d="M166.06,51.36c0,3.86,0,7.03.2,8.72.12,1.16.36,2.05,1.57,2.21.56.08,1.45.16,1.81.16.24,0,.32.12.32.24,0,.2-.2.32-.64.32-2.21,0-4.74-.12-4.94-.12s-2.73.12-3.94.12c-.44,0-.64-.08-.64-.32,0-.12.08-.24.32-.24.36,0,.84-.08,1.21-.16.8-.16,1-1.04,1.17-2.21.2-1.69.2-4.86.2-8.72v-17l-5.95.08c-2.49.04-3.46.32-4.1,1.29-.44.68-.56.96-.68,1.24-.12.32-.24.4-.4.4-.12,0-.2-.12-.2-.36,0-.4.8-3.86.88-4.18.08-.24.24-.76.4-.76.28,0,.68.4,1.77.48,1.17.12,2.69.2,3.17.2h15.07c1.29,0,2.21-.08,2.85-.2.6-.08.96-.2,1.12-.2.2,0,.2.24.2.48,0,1.2-.12,3.98-.12,4.42,0,.36-.12.52-.28.52-.2,0-.28-.12-.32-.68l-.04-.44c-.12-1.21-1.08-2.13-4.94-2.21l-5.06-.08v17Z"/>
  <path class="cls-6" d="M191.72,51.36c0,3.86,0,7.03.2,8.72.12,1.16.36,2.05,1.57,2.21.56.08,1.45.16,1.81.16.24,0,.32.12.32.24,0,.2-.2.32-.64.32-2.21,0-4.74-.12-4.94-.12s-2.73.12-3.94.12c-.44,0-.64-.08-.64-.32,0-.12.08-.24.32-.24.36,0,.84-.08,1.2-.16.8-.16,1-1.04,1.17-2.21.2-1.69.2-4.86.2-8.72v-7.07c0-6.27,0-7.4-.08-8.68-.08-1.37-.49-2.05-1.37-2.25-.44-.12-.96-.16-1.25-.16-.16,0-.32-.08-.32-.24,0-.24.2-.32.64-.32,1.33,0,3.86.12,4.06.12s2.73-.12,3.94-.12c.44,0,.64.08.64.32,0,.16-.16.24-.32.24-.28,0-.52.04-1,.12-1.08.2-1.4.88-1.49,2.29-.08,1.29-.08,2.41-.08,8.68v7.07Z"/>
  <path class="cls-6" d="M206.7,44.29c0-6.27,0-7.4-.08-8.68-.08-1.37-.4-2.01-1.73-2.29-.32-.08-1-.12-1.37-.12-.16,0-.32-.08-.32-.24,0-.24.2-.32.64-.32.92,0,2.01,0,2.89.04l1.65.08c.28,0,8.28,0,9.2-.04.76-.04,1.4-.12,1.73-.2.2-.04.36-.2.56-.2.12,0,.16.16.16.36,0,.28-.2.76-.32,1.89-.04.4-.12,2.17-.2,2.65-.04.2-.12.44-.28.44-.24,0-.32-.2-.32-.52,0-.28-.04-.96-.24-1.45-.28-.64-.68-1.13-2.85-1.37-.69-.08-5.07-.12-5.51-.12-.16,0-.24.12-.24.4v11.09c0,.28.04.4.24.4.52,0,5.46,0,6.39-.08.97-.08,1.53-.16,1.89-.56.28-.32.44-.52.6-.52.12,0,.2.08.2.32s-.2.92-.32,2.25c-.08.8-.16,2.29-.16,2.57,0,.32,0,.76-.28.76-.2,0-.28-.16-.28-.36,0-.4,0-.8-.16-1.33-.16-.56-.52-1.25-2.09-1.41-1.08-.12-5.06-.2-5.75-.2-.2,0-.28.12-.28.28v3.54c0,1.37-.04,6.02,0,6.87.12,2.77.72,3.29,4.66,3.29,1.04,0,2.81,0,3.86-.44,1.04-.44,1.53-1.25,1.81-2.89.08-.44.16-.6.36-.6.24,0,.24.32.24.6,0,.32-.32,3.06-.52,3.9-.28,1.04-.6,1.04-2.17,1.04-3.01,0-5.22-.08-6.79-.12-1.57-.08-2.53-.12-3.13-.12-.08,0-.76,0-1.61.04-.8,0-1.73.08-2.33.08-.44,0-.64-.08-.64-.32,0-.12.08-.24.32-.24.36,0,.85-.08,1.21-.16.8-.16,1-1.04,1.16-2.21.2-1.69.2-4.86.2-8.72v-7.07Z"/>
  <g>
    <path class="cls-8" d="M178.84,90.2c.4-.08.96-.13,1.5-.13.84,0,1.38.15,1.76.5.31.27.48.68.48,1.15,0,.8-.5,1.33-1.14,1.55v.03c.47.16.75.59.89,1.22.2.85.34,1.43.47,1.67h-.81c-.1-.17-.23-.69-.41-1.45-.18-.84-.5-1.15-1.21-1.18h-.74v2.63h-.78v-5.99ZM179.62,92.96h.8c.84,0,1.37-.46,1.37-1.15,0-.78-.57-1.13-1.4-1.13-.38,0-.65.04-.77.07v2.21Z"/>
    <path class="cls-8" d="M184.91,90.78h-1.85v-.67h4.49v.67h-1.85v5.4h-.79v-5.4Z"/>
    <path class="cls-8" d="M193.17,93.09c0,2.09-1.27,3.2-2.82,3.2s-2.73-1.24-2.73-3.08c0-1.93,1.2-3.19,2.82-3.19s2.73,1.27,2.73,3.07ZM188.46,93.18c0,1.3.7,2.46,1.94,2.46s1.94-1.14,1.94-2.52c0-1.21-.63-2.47-1.94-2.47s-1.94,1.2-1.94,2.53Z"/>
    <path class="cls-8" d="M196.1,96.18v-6.07h.85l1.95,3.07c.45.71.8,1.35,1.09,1.97h.02c-.07-.82-.09-1.56-.09-2.5v-2.54h.74v6.07h-.79l-1.93-3.08c-.42-.67-.83-1.37-1.13-2.03h-.03c.04.77.06,1.5.06,2.51v2.59h-.74Z"/>
    <path class="cls-8" d="M205.94,93.97c0,1.61-1.12,2.31-2.17,2.31-1.18,0-2.09-.86-2.09-2.24,0-1.46.96-2.31,2.16-2.31s2.1.91,2.1,2.24ZM202.48,94.01c0,.95.55,1.67,1.32,1.67s1.32-.71,1.32-1.69c0-.74-.37-1.67-1.31-1.67s-1.34.86-1.34,1.69Z"/>
    <path class="cls-8" d="M208.65,92.55c0-.33.23-.57.54-.57s.52.23.53.57c0,.31-.21.56-.54.56-.31,0-.53-.24-.53-.56ZM208.65,95.72c0-.33.23-.57.54-.57s.52.23.53.57c0,.32-.21.56-.54.56-.31,0-.53-.24-.53-.56Z"/>
    <path class="cls-8" d="M214.08,91.07h-.02l-1.02.55-.15-.6,1.28-.68h.67v5.85h-.76v-5.11Z"/>
    <path class="cls-8" d="M218.7,91.07h-.02l-1.02.55-.15-.6,1.28-.68h.67v5.85h-.76v-5.11Z"/>
    <path class="cls-8" d="M225.48,93.19c0,1.99-.74,3.09-2.03,3.09-1.14,0-1.92-1.07-1.94-3.01,0-1.96.85-3.04,2.03-3.04s1.94,1.1,1.94,2.96ZM222.31,93.28c0,1.52.47,2.39,1.19,2.39.81,0,1.2-.95,1.2-2.44s-.37-2.39-1.19-2.39c-.69,0-1.2.85-1.2,2.44Z"/>
    <path class="cls-8" d="M230.1,93.19c0,1.99-.74,3.09-2.03,3.09-1.14,0-1.92-1.07-1.94-3.01,0-1.96.85-3.04,2.03-3.04s1.94,1.1,1.94,2.96ZM226.92,93.28c0,1.52.47,2.39,1.19,2.39.81,0,1.2-.95,1.2-2.44s-.37-2.39-1.19-2.39c-.69,0-1.2.85-1.2,2.44Z"/>
    <path class="cls-8" d="M230.76,94.7c0-.74.44-1.26,1.16-1.57v-.03c-.66-.31-.94-.81-.94-1.31,0-.93.78-1.56,1.81-1.56,1.13,0,1.7.71,1.7,1.44,0,.5-.24,1.03-.96,1.37v.03c.73.29,1.18.8,1.18,1.51,0,1.02-.87,1.7-1.99,1.7-1.22,0-1.96-.73-1.96-1.58ZM233.91,94.66c0-.71-.5-1.05-1.29-1.28-.68.2-1.05.65-1.05,1.21-.03.59.42,1.12,1.17,1.12s1.17-.44,1.17-1.04ZM231.73,91.74c0,.58.44.9,1.12,1.08.5-.17.89-.53.89-1.06,0-.47-.28-.95-.99-.95-.66,0-1.02.43-1.02.94Z"/>
    <path class="cls-8" d="M239.34,93.19c0,1.99-.74,3.09-2.03,3.09-1.14,0-1.92-1.07-1.94-3.01,0-1.96.85-3.04,2.03-3.04s1.94,1.1,1.94,2.96ZM236.16,93.28c0,1.52.47,2.39,1.19,2.39.81,0,1.2-.95,1.2-2.44s-.37-2.39-1.19-2.39c-.69,0-1.2.85-1.2,2.44Z"/>
  </g>
  <g>
    <path class="cls-8" d="M98.34,95.98c-.29.14-.86.29-1.6.29-1.71,0-3-1.08-3-3.07s1.29-3.19,3.17-3.19c.76,0,1.23.16,1.44.27l-.19.64c-.3-.14-.72-.25-1.22-.25-1.42,0-2.37.91-2.37,2.5,0,1.49.86,2.44,2.33,2.44.48,0,.96-.1,1.28-.25l.16.62Z"/>
    <path class="cls-8" d="M99.32,90.2c.4-.08.96-.13,1.5-.13.84,0,1.38.15,1.76.5.31.27.48.68.48,1.15,0,.8-.5,1.33-1.14,1.55v.03c.47.16.75.59.89,1.22.2.85.34,1.43.47,1.67h-.81c-.1-.17-.23-.69-.41-1.45-.18-.84-.5-1.15-1.22-1.18h-.74v2.63h-.78v-5.99ZM100.1,92.96h.8c.84,0,1.37-.46,1.37-1.15,0-.78-.57-1.13-1.4-1.13-.38,0-.65.04-.77.07v2.21Z"/>
    <path class="cls-8" d="M104.94,90.12v6.07h-.78v-6.07h.78Z"/>
    <path class="cls-8" d="M110.55,95.98c-.29.14-.86.29-1.6.29-1.71,0-3-1.08-3-3.07s1.29-3.19,3.17-3.19c.76,0,1.23.16,1.44.27l-.19.64c-.3-.14-.72-.25-1.22-.25-1.42,0-2.37.91-2.37,2.5,0,1.49.86,2.44,2.33,2.44.48,0,.96-.1,1.28-.25l.16.62Z"/>
    <path class="cls-8" d="M116.53,93.09c0,2.09-1.27,3.2-2.82,3.2s-2.73-1.24-2.73-3.08c0-1.93,1.2-3.19,2.82-3.19s2.73,1.27,2.73,3.07ZM111.82,93.18c0,1.3.7,2.46,1.94,2.46s1.94-1.14,1.94-2.52c0-1.21-.63-2.47-1.94-2.47s-1.94,1.2-1.94,2.53Z"/>
    <path class="cls-8" d="M117.43,95.23c.35.22.86.4,1.4.4.8,0,1.27-.42,1.27-1.04,0-.57-.32-.89-1.14-1.21-.99-.35-1.6-.86-1.6-1.72,0-.95.78-1.65,1.96-1.65.62,0,1.07.14,1.34.3l-.22.64c-.2-.11-.6-.29-1.15-.29-.83,0-1.14.5-1.14.91,0,.57.37.85,1.21,1.17,1.03.4,1.55.89,1.55,1.78,0,.94-.69,1.75-2.12,1.75-.59,0-1.22-.17-1.55-.39l.2-.66Z"/>
    <path class="cls-8" d="M123.89,96.18v-6.07h.86l1.94,3.07c.45.71.8,1.35,1.09,1.97h.02c-.07-.82-.09-1.56-.09-2.5v-2.54h.74v6.07h-.79l-1.93-3.08c-.42-.67-.83-1.37-1.13-2.03h-.03c.04.77.06,1.5.06,2.51v2.59h-.74Z"/>
    <path class="cls-8" d="M133.72,93.97c0,1.61-1.12,2.31-2.17,2.31-1.18,0-2.09-.86-2.09-2.24,0-1.46.95-2.31,2.16-2.31s2.1.91,2.1,2.24ZM130.27,94.01c0,.95.55,1.67,1.32,1.67s1.32-.71,1.32-1.69c0-.74-.37-1.67-1.31-1.67s-1.34.86-1.34,1.69Z"/>
    <path class="cls-8" d="M136.44,92.55c0-.33.23-.57.54-.57s.52.23.53.57c0,.31-.21.56-.54.56-.32,0-.53-.24-.53-.56ZM136.44,95.72c0-.33.23-.57.54-.57s.52.23.53.57c0,.32-.21.56-.54.56-.32,0-.53-.24-.53-.56Z"/>
    <path class="cls-8" d="M144.04,93.19c0,1.99-.74,3.09-2.03,3.09-1.14,0-1.92-1.07-1.94-3.01,0-1.96.85-3.04,2.03-3.04s1.94,1.1,1.94,2.96ZM140.86,93.28c0,1.52.47,2.39,1.19,2.39.81,0,1.2-.95,1.2-2.44s-.37-2.39-1.19-2.39c-.69,0-1.2.85-1.2,2.44Z"/>
    <path class="cls-8" d="M144.95,95.27c.23.14.75.37,1.3.37,1.02,0,1.33-.65,1.32-1.13,0-.82-.75-1.17-1.51-1.17h-.44v-.59h.44c.58,0,1.31-.3,1.31-.99,0-.47-.3-.88-1.03-.88-.47,0-.92.21-1.17.39l-.21-.58c.31-.22.9-.45,1.53-.45,1.15,0,1.67.68,1.67,1.4,0,.6-.36,1.12-1.08,1.38v.02c.72.14,1.31.68,1.31,1.5,0,.94-.73,1.75-2.13,1.75-.66,0-1.23-.21-1.52-.4l.22-.61Z"/>
    <path class="cls-8" d="M152.88,91h-2.23l-.22,1.5c.13-.02.26-.04.48-.04.45,0,.9.1,1.26.31.46.26.84.77.84,1.5,0,1.14-.91,2-2.18,2-.64,0-1.18-.18-1.46-.36l.2-.6c.24.14.72.32,1.25.32.75,0,1.39-.49,1.39-1.27,0-.76-.51-1.3-1.68-1.3-.33,0-.59.04-.81.06l.38-2.81h2.8v.67Z"/>
    <path class="cls-8" d="M154,96.18v-.49l.62-.6c1.49-1.42,2.17-2.18,2.18-3.06,0-.59-.29-1.14-1.16-1.14-.53,0-.97.27-1.24.5l-.25-.56c.41-.34.98-.59,1.66-.59,1.26,0,1.79.86,1.79,1.7,0,1.08-.78,1.95-2.02,3.14l-.47.43v.02h2.63v.66h-3.74Z"/>
    <path class="cls-8" d="M162.51,93.19c0,1.99-.74,3.09-2.03,3.09-1.14,0-1.92-1.07-1.94-3.01,0-1.96.85-3.04,2.03-3.04s1.94,1.1,1.94,2.96ZM159.33,93.28c0,1.52.47,2.39,1.19,2.39.81,0,1.2-.95,1.2-2.44s-.37-2.39-1.19-2.39c-.69,0-1.2.85-1.2,2.44Z"/>
    <path class="cls-8" d="M168.13,95.91c-.35.13-1.04.33-1.86.33-.92,0-1.67-.23-2.27-.8-.52-.5-.85-1.31-.85-2.26,0-1.81,1.25-3.13,3.29-3.13.7,0,1.25.15,1.51.28l-.19.64c-.32-.14-.73-.26-1.34-.26-1.48,0-2.44.92-2.44,2.44s.93,2.45,2.34,2.45c.51,0,.86-.07,1.04-.16v-1.81h-1.23v-.63h2v2.92Z"/>
  </g>
  <g>
    <path class="cls-7" d="M90.11,83.46c.07-.07.14-.11.19-.12.13-.04.34-.07.65-.09.73-.04,1.18-.11,1.35-.2.1-.15.16-.36.16-.63v-.79s0-2.86,0-2.86l-.02-1.35v-2.82s-.04-3.21-.04-3.21c0-.77-.06-1.2-.15-1.29-.13-.14-.54-.23-1.2-.25-.28,0-.54-.03-.75-.07-.1-.05-.15-.12-.15-.2,0-.06.02-.13.06-.21.07-.04.13-.06.18-.06.1,0,.23,0,.38.01.44.04.9.07,1.37.07l.83-.02,1.98.04c.99,0,1.76-.01,2.31-.03.55-.02.93-.03,1.12-.03.17,0,.6.01,1.28.04h1.59s.19.02.19.02l.93-.03.11.06c.04.06.06.12.08.19,0,.1-.02.27-.05.48-.03.22-.05.35-.05.4,0,.78.03,1.44.08,1.98,0,.04-.03.08-.07.09-.08,0-.15-.01-.22-.03-.08-.14-.19-.39-.33-.75s-.35-.77-.62-1.25c-.19-.31-.33-.5-.44-.56-.1-.06-.32-.09-.65-.09-.07,0-.41,0-1.02-.02-.17,0-.33-.01-.48-.01l-3.2.07h-.28c-.41,0-.66.05-.74.16-.13.18-.19.71-.19,1.58,0,.09.02.99.06,2.7v1.56c.08.02.17.03.27.03h.19c.13,0,.31,0,.56.01.39.01.65.02.79.02.09,0,.17,0,.24-.01.81-.03,1.85-.04,3.12-.04.4-.07.63-.15.7-.24.11-.13.2-.49.25-1.06.06-.57.18-.89.38-.97.1,0,.19.02.27.06.02.06.02.12.02.17s0,.14-.02.26c-.04.28-.06,1.14-.06,2.61,0,.39.02.82.06,1.3.04.48.06.74.06.77,0,.07-.01.16-.03.27-.06.03-.11.04-.15.04h-.08c-.12-.21-.24-.54-.35-.98-.19-.76-.4-1.23-.61-1.42-.21-.19-.56-.29-1.04-.29-.1,0-.3,0-.57.02-.28.01-.69.02-1.24.02h-.73c-1.04,0-1.72.02-2.04.07v.37s0,2.07,0,2.07v1.3s0,1.27,0,1.27c0,.76.06,1.21.15,1.33.13.17.4.25.83.25h.69c.06-.01.29,0,.7,0,.41.01.91.02,1.51.02,1.44,0,2.41-.06,2.89-.19s.87-.34,1.18-.66c.31-.32.7-1,1.17-2.04.14-.31.28-.46.43-.46.07,0,.14.03.22.09-.22.74-.34,1.23-.37,1.46-.08.52-.13,1.06-.15,1.61,0,.25-.06.45-.18.62h-.25l-3.16.03h-1.42s-3.37.03-3.37.03h-1.37c-.17,0-.33,0-.48.01-1.35.06-2.34.09-2.98.09-.11,0-.19-.02-.23-.05-.04-.04-.06-.09-.06-.16v-.11Z"/>
    <path class="cls-7" d="M106.75,83.42c.28-.12.6-.2.97-.24.53-.06.93-.19,1.19-.38.2-.41.3-1.46.3-3.15v-1.78l.02-1.07-.02-.79.02-1.45-.03-3.65c0-.41-.06-.68-.18-.81-.17-.19-.63-.36-1.37-.52-.31-.07-.49-.13-.56-.19-.07-.06-.11-.16-.12-.32.17-.04.29-.06.36-.06h1.21c.28-.01.58.02.92.08.69.04,1.4.07,2.12.07.21,0,.51-.01.9-.03,1.03-.06,1.77-.09,2.22-.09.91,0,1.76.09,2.57.27.8.18,1.63.51,2.49,1,.53.31,1.08.79,1.63,1.46.56.66.98,1.38,1.27,2.17.29.78.43,1.66.43,2.65,0,.88-.16,1.74-.48,2.61-.32.86-.76,1.61-1.33,2.24s-1.15,1.11-1.73,1.43-1.48.59-2.67.83c-.49.09-1.38.13-2.66.13-.85,0-1.53-.03-2.07-.08-.21-.03-.43-.04-.67-.04-.04,0-.08,0-.12.01l-4.58.09-.02-.09s-.02-.08-.02-.12l.02-.17ZM112.47,82.97c.57.19,1.15.29,1.73.29.76,0,1.5-.12,2.22-.35.73-.24,1.37-.57,1.93-1,.56-.43,1.02-.92,1.38-1.46s.61-1.03.76-1.47c.21-.64.31-1.46.31-2.48s-.21-1.96-.62-2.96c-.28-.7-.78-1.36-1.5-2-.72-.64-1.56-1.1-2.53-1.4s-2.03-.44-3.16-.44c-.78,0-1.35.09-1.73.26-.04.04-.09.1-.13.16-.04.19-.07.36-.07.52,0,.1,0,.21.01.35.02.87.03,1.56.03,2.09v2.55c-.01,3.74.06,5.83.2,6.25.14.42.53.79,1.16,1.11Z"/>
    <path class="cls-7" d="M132.61,69.21c.04.13.06.22.06.29,0,.04-.01.11-.03.2-.19.05-.35.08-.47.08-.05,0-.14,0-.26-.02-.12-.01-.22-.02-.3-.02-.34,0-.62.07-.82.2-.13.08-.22.19-.25.33l-.11,1.28.03,5.56c0,2.04.07,3.31.2,3.8.13.5.34.91.64,1.23s.75.59,1.35.8c.6.21,1.19.31,1.76.31,1.27,0,2.25-.18,2.93-.55s1.16-.88,1.46-1.52c.3-.65.44-1.63.44-2.95,0-.04-.01-.34-.03-.9v-.33c0-.12,0-.35.02-.7.01-.35.02-.55.02-.61l-.17-3.23c-.05-1.09-.11-1.73-.19-1.92-.07-.2-.17-.34-.31-.44-.29-.21-.85-.4-1.66-.56-.04-.1-.06-.21-.07-.33.29-.03.58-.04.86-.04.3,0,.61.01.94.03.49.04.76.06.81.06l1.78-.06h.35s-.01.42-.01.42c-.92.12-1.47.26-1.65.42s-.27.46-.27.89c0,.23.01.74.04,1.52l.08,2.33v.92s.02,1.17.02,1.17c0,1.47-.04,2.47-.12,3-.12.74-.29,1.33-.51,1.76s-.54.83-.96,1.17c-.42.35-.98.63-1.68.86-.7.22-1.39.34-2.07.34-1.07,0-1.84-.07-2.31-.22-.86-.26-1.55-.6-2.06-1.02s-.86-.84-1.06-1.26c-.26-.55-.39-1.36-.39-2.43v-.78l-.03-3.15.03-2.54v-1.71c0-.43-.06-.74-.18-.91-.08-.12-.2-.18-.36-.18h-.66c-.49.01-.81-.04-.94-.15-.02-.07-.03-.13-.03-.18,0-.07.02-.12.07-.16.08-.06.18-.09.3-.09h1.04s1.77-.01,1.77-.01l2.95-.03Z"/>
    <path class="cls-7" d="M157.5,69.88c.09.58.13,1.17.13,1.77,0,.12,0,.28-.01.48-.1.02-.18.03-.24.03-.04,0-.11,0-.19-.02-.31-.88-.83-1.55-1.54-2.02-.71-.47-1.59-.71-2.64-.71-.55,0-1.02.06-1.4.19-.67.23-1.27.55-1.78.96-.51.41-.94.89-1.29,1.46s-.63,1.25-.84,2.06-.31,1.63-.31,2.46c0,1.6.24,2.93.73,3.97.49,1.04,1.15,1.79,2,2.24.85.45,1.7.67,2.56.67h.53c.6-.09,1.01-.16,1.22-.22.55-.16,1-.34,1.35-.56.36-.21.7-.51,1.04-.9s.63-.84.87-1.36l.13-.04s.09.02.17.07c0,.18-.01.29-.02.35-.31,1.27-.54,2.13-.69,2.59-.12.03-.27.08-.45.13-.88.3-2.05.45-3.52.45-1.18,0-2.07-.08-2.66-.24s-1.23-.41-1.92-.75-1.3-.79-1.82-1.35c-.52-.56-.95-1.27-1.27-2.13s-.48-1.79-.48-2.8c0-.96.13-1.79.38-2.51.25-.71.65-1.44,1.18-2.17s1.16-1.34,1.88-1.83c.72-.49,1.53-.83,2.41-1.03.62-.13,1.5-.2,2.64-.2.83,0,1.61.11,2.35.33s1.22.44,1.47.65Z"/>
    <path class="cls-7" d="M160.52,83.27c.1-.06.2-.09.28-.09h.26c.05,0,.14,0,.27-.01.58-.05.92-.1,1.02-.16.26-.14.49-.39.67-.74.39-.76.83-1.84,1.31-3.25.23-.67.38-1.07.44-1.21.19-.45.37-.92.54-1.42l1.06-2.95c.17-.46.56-1.53,1.19-3.19.16-.42.35-.98.57-1.69l.33-.02h.39c.32.65.61,1.33.85,2.07.13.39.36.97.66,1.74l1.71,4.62.91,2.5c.48,1.42.79,2.3.94,2.62.15.33.29.54.42.65.04.03.18.07.42.13.24.06.41.1.51.13.34.1.58.18.72.25.03.08.04.15.04.19,0,.04-.01.09-.03.17-.24,0-.41.01-.51.01-.38,0-1.05-.01-2.02-.03l-1.12-.03-1.36.02c-.09,0-.18,0-.28-.01s-.17-.01-.24-.01h-.25c-.08,0-.16-.03-.22-.07,0-.1.02-.21.06-.3.09-.04.17-.07.25-.08l1.18-.08c.31-.01.54-.06.7-.12.04-.14.07-.24.07-.3,0-.14-.1-.48-.29-1.05-.13-.38-.25-.73-.35-1.07-.1-.34-.5-1.45-1.19-3.33-.31-.05-.58-.08-.81-.08l-2.4.02h-.71c-.25-.01-.54,0-.84.04-.1.22-.16.39-.19.48l-.99,3.09c-.42,1.17-.63,1.82-.63,1.94,0,.07.03.18.1.34.16.04.37.09.63.12l1.53.13c.08.07.12.13.12.18,0,.04-.01.09-.03.17-.34,0-.59.01-.77.01-.6,0-1.3-.02-2.09-.06-.37-.01-.63-.02-.79-.02s-.43,0-.82.02c-.25.01-.44.02-.55.02-.18,0-.41-.01-.7-.03v-.07c0-.05.01-.12.04-.21ZM165.88,76.53c.8.04,1.71.07,2.74.07.58,0,1.1-.02,1.54-.06-.07-.29-.16-.57-.26-.82-.49-1.3-.75-2.02-.81-2.16l-1.02-2.59-.11-.2c-.04.09-.21.48-.49,1.16-.48,1.17-.83,2.08-1.04,2.73-.1.29-.2.58-.3.87-.1.29-.17.49-.2.61s-.07.23-.12.35l.07.04Z"/>
    <path class="cls-7" d="M177.75,70.94l.46-1.7c.03-.22.07-.37.12-.43s.11-.1.18-.1c.13,0,.29.16.46.48.13.23.23.38.31.44.08.06.2.11.36.13h.11s.48.03.48.03l2.65.03h3.13s.92-.01.92-.01l1.74-.03c.08,0,.17,0,.28.02.51.04.82.07.94.07s.2-.04.27-.11c.02-.03.15-.28.37-.74.1-.21.22-.32.36-.32.06,0,.13.01.22.04.04.15.06.28.06.4v.45s0,.95,0,.95c0,.23-.02.97-.06,2.23,0,.08-.01.16-.04.22-.08.05-.15.08-.21.08s-.11-.03-.16-.08-.1-.23-.17-.52c-.15-.67-.34-1.15-.56-1.44-.15-.19-.37-.32-.65-.4-.28-.08-.95-.12-2.02-.12h-1.9c-.01.3-.02.57-.02.82l.09,6.98c0,.28-.01.8-.04,1.57v1.5s0,.83,0,.83c0,.26.04.45.13.56s.33.22.73.33c.69.17,1.15.28,1.38.31.14.01.26.04.35.09v.34l-1.6-.04c-.88,0-1.53-.02-1.98-.05l-1.64.08-1.2.07c-.34,0-.54,0-.62-.02l-.16-.07c.01-.17.05-.28.1-.33s.19-.09.42-.12c.31-.04.69-.13,1.11-.24s.71-.23.84-.35c.07-.07.13-.18.16-.34.07-.33.1-.98.1-1.94v-1.91l-.04-4.17-.04-.9v-3h-1.82c-1.08,0-1.73.07-1.97.2-.37.2-.91.8-1.64,1.79-.24.37-.45.55-.63.55l-.1-.02s-.04-.09-.04-.12c0-.09.06-.36.18-.81.15-.58.24-.97.27-1.17Z"/>
    <path class="cls-7" d="M193.81,83.27c.17-.07.33-.11.51-.12,1.15-.08,1.8-.21,1.96-.41.17-.2.25-1.16.25-2.88v-1.18s-.01-1.24-.01-1.24l-.04-1.36.02-.8v-.88s-.01-1.03-.01-1.03l-.02-.46.02-.58c0-.13.01-.29.01-.47,0-.47-.02-.97-.07-1.49-.03-.11-.07-.21-.12-.3-.28-.14-.72-.24-1.34-.29-.62-.05-.97-.1-1.05-.16-.06-.04-.09-.16-.1-.35h.95l2.98.07c.77,0,1.79-.02,3.06-.07,0,.12,0,.23-.02.34-.15.04-.4.08-.75.12-.71.08-1.15.16-1.3.24-.1.04-.17.1-.21.19-.08.13-.12.39-.13.75l-.06,1.45.04,5v1.98c-.01.62-.02,1.05-.02,1.27,0,.84.02,1.38.06,1.61s.11.4.21.5c.1.1.27.18.5.24.34.08.61.13.81.13.42.02.69.08.8.18.02.1.03.18.03.25v.09c-.68.02-1.19.03-1.51.03-.19,0-.52-.01-1-.03l-1.55.02h-2.64s-.21-.01-.21-.01l-.02-.34Z"/>
    <path class="cls-7" d="M204.36,76.45c0-.76.09-1.44.28-2.04.18-.59.49-1.24.93-1.94.43-.7.96-1.28,1.57-1.75.61-.47,1.46-.88,2.55-1.24.76-.25,1.73-.37,2.9-.37.79,0,1.56.1,2.31.31.75.21,1.44.5,2.05.88s1.23.95,1.84,1.73c.43.54.75,1.12.97,1.74.28.82.43,1.66.43,2.53,0,.99-.1,1.81-.29,2.46-.19.65-.51,1.3-.96,1.93-.35.49-.95,1.06-1.81,1.71-.57.43-1.28.79-2.12,1.05-.85.27-1.76.4-2.74.4s-1.88-.12-2.66-.35c-.78-.23-1.43-.52-1.95-.85s-1.06-.83-1.61-1.48c-.55-.65-.97-1.37-1.25-2.16s-.43-1.64-.43-2.57ZM212.16,83.44c.63,0,1.28-.09,1.96-.26s1.28-.47,1.8-.88c.52-.41.93-.87,1.23-1.39s.53-1.19.71-2c.18-.82.27-1.63.27-2.45,0-1.02-.15-2.03-.45-3.02-.23-.76-.61-1.43-1.13-2.03-.52-.59-1.16-1.06-1.9-1.38-.74-.33-1.53-.49-2.37-.49-.68,0-1.35.11-2,.34-.65.22-1.19.51-1.61.86-.42.35-.81.84-1.17,1.48-.36.64-.63,1.35-.82,2.12-.19.77-.28,1.45-.28,2.04,0,.62.09,1.33.28,2.11.19.79.44,1.47.77,2.04.33.58.73,1.09,1.2,1.53s1.01.79,1.6,1.02c.59.24,1.22.35,1.9.35Z"/>
    <path class="cls-7" d="M223.42,69.9v-.54c1.15,0,2-.03,2.54-.09.21-.02.36-.03.44-.03.07,0,.17,0,.3.01.31.26.61.56.88.9.06.07.13.14.2.22l2.37,2.62.34.4c.48.56.92,1.04,1.31,1.44.39.4,1.16,1.22,2.3,2.48l2.68,2.98c.26.29.6.66,1.01,1.09v-.18c-.03-1.04-.06-1.59-.06-1.65l.04-.67-.02-1.06v-.48c0-.31-.03-1.25-.08-2.84,0-.22-.04-.63-.09-1.23s-.08-1.13-.08-1.59c0-.82-.05-1.3-.15-1.44-.07-.1-.39-.2-.96-.3-.13,0-.34-.03-.63-.07-.34-.01-.54-.03-.59-.06-.06-.02-.12-.09-.18-.19.01-.12.05-.23.1-.34.2-.06.4-.09.6-.09.21,0,.47.03.78.08.31.05.59.08.84.08.34,0,.88-.02,1.61-.07.41-.03.7-.04.85-.04h.19l-.02.35c-.12.05-.28.08-.49.09-.21.01-.4.04-.58.1-.27.08-.43.15-.48.21-.18.19-.27.39-.27.59l.12,3.55.09,1.63v.47s.06,2.26.06,2.26c.04,1.54.07,2.88.07,4.02,0,.25-.02.78-.04,1.61l-.52.04c-.26-.3-1.16-1.24-2.71-2.83-.36-.37-.6-.62-.73-.77l-.97-1.11c-.38-.41-.62-.67-.73-.79-.11-.11-.2-.2-.25-.25-.82-.93-1.88-2.09-3.18-3.48-.35-.38-.87-.96-1.55-1.75-.43-.5-.7-.81-.81-.92-.11-.11-.27-.24-.46-.38l-.03.38c0,1.46.04,3.47.11,6.04l.08,3.72c0,.31.03.62.06.91l.39.09c.71.07,1.41.17,2.1.3.05.04.1.08.13.1v.43c-.13.04-.23.06-.3.06-.08,0-.18,0-.3-.02-.74-.06-1.64-.09-2.71-.09-.75,0-1.41.02-1.98.06h-.16c-.07.01-.17,0-.29-.01v-.34s.28-.13.28-.13l.53-.08c.47-.07.82-.14,1.03-.22.14-.05.26-.13.35-.24.08-.52.12-1.27.12-2.27,0-.46-.01-1.31-.03-2.55v-1.53l-.02-3.19c-.01-1.42-.06-2.26-.15-2.52-.04-.13-.14-.25-.28-.36-.28-.2-.66-.33-1.12-.38-.46-.05-.76-.1-.89-.13Z"/>
  </g>
</svg>